<svg width="113" height="48" viewBox="0 0 113 48" fill="none" xmlns="http://www.w3.org/2000/svg">
<path fill-rule="evenodd" clip-rule="evenodd" d="M24 0C10.7452 0 0 10.7452 0 24C0 37.2548 10.7452 48 24 48H89C102.255 48 113 37.2548 113 24C113 10.7452 102.255 0 89 0H24ZM27.2014 30.3125C27.2014 30.5078 27.1298 30.6771 26.9866 30.8203C26.8498 30.9635 26.6838 31.0352 26.4885 31.0352C26.2932 31.0352 26.1239 30.9635 25.9807 30.8203C25.844 30.6771 25.7756 30.5078 25.7756 30.3125C25.7756 30.1172 25.844 29.9479 25.9807 29.8047C26.1239 29.6615 26.2932 29.5898 26.4885 29.5898C26.6838 29.5898 26.8498 29.6615 26.9866 29.8047C27.1298 29.9479 27.2014 30.1172 27.2014 30.3125ZM30.053 30.3125C30.053 30.5078 29.9813 30.6771 29.8381 30.8203C29.7014 30.9635 29.5354 31.0352 29.3401 31.0352C29.1448 31.0352 28.9755 30.9635 28.8323 30.8203C28.6955 30.6771 28.6272 30.5078 28.6272 30.3125C28.6272 30.1172 28.6955 29.9479 28.8323 29.8047C28.9755 29.6615 29.1448 29.5898 29.3401 29.5898C29.5354 29.5898 29.7014 29.6615 29.8381 29.8047C29.9813 29.9479 30.053 30.1172 30.053 30.3125ZM31.4885 31.3867V27.8125C31.4885 27.513 31.3843 27.2591 31.176 27.0508C30.9677 26.8424 30.7138 26.7383 30.4143 26.7383H25.2385L23.7151 28.2617C23.2854 28.6784 22.7808 28.8867 22.2014 28.8867C21.6155 28.8867 21.1076 28.6784 20.678 28.2617L19.1741 26.7383H13.9885C13.689 26.7383 13.4351 26.8424 13.2268 27.0508C13.0185 27.2591 12.9143 27.513 12.9143 27.8125V31.3867C12.9143 31.6862 13.0185 31.9401 13.2268 32.1484C13.4351 32.3568 13.689 32.4609 13.9885 32.4609H30.4143C30.7138 32.4609 30.9677 32.3568 31.176 32.1484C31.3843 31.9401 31.4885 31.6862 31.4885 31.3867ZM27.6994 22.2461C27.9273 22.0247 27.9794 21.7643 27.8557 21.4648C27.732 21.1784 27.5139 21.0352 27.2014 21.0352H24.3401V16.0352C24.3401 15.8398 24.2685 15.6706 24.1252 15.5273C23.9885 15.3841 23.8225 15.3125 23.6272 15.3125H20.7756C20.5803 15.3125 20.411 15.3841 20.2678 15.5273C20.1246 15.6706 20.053 15.8398 20.053 16.0352V21.0352H17.2014C17.0582 21.0352 16.9247 21.0742 16.801 21.1523C16.6773 21.2305 16.5894 21.3346 16.5373 21.4648C16.4136 21.7643 16.4657 22.0247 16.6936 22.2461L21.6936 27.2461C21.8303 27.3893 21.9996 27.4609 22.2014 27.4609C22.3967 27.4609 22.5627 27.3893 22.6994 27.2461L27.6994 22.2461ZM44.3858 17.54V30H45.8058V24.5H48.2258L50.9858 30H52.5458L49.6658 24.44C50.1858 24.3067 50.6325 24.0667 51.0058 23.72C51.3925 23.3733 51.6858 22.9667 51.8858 22.5C52.0992 22.0333 52.2058 21.5667 52.2058 21.1C52.2058 20.38 52.0658 19.7533 51.7859 19.22C51.5058 18.6867 51.0592 18.2733 50.4459 17.98C49.8458 17.6867 49.0525 17.54 48.0658 17.54H44.3858ZM48.2258 23.26H45.8058V18.86H48.2258C48.8258 18.86 49.3125 18.96 49.6858 19.16C50.0592 19.36 50.3325 19.6333 50.5058 19.98C50.6792 20.3133 50.7659 20.6867 50.7659 21.1C50.7659 21.7533 50.5658 22.28 50.1658 22.68C49.7659 23.0667 49.1192 23.26 48.2258 23.26ZM56.8858 29.9C57.4325 30.1 58.0392 30.2 58.7058 30.2C59.1592 30.2 59.5792 30.1467 59.9658 30.04C60.3525 29.9467 60.7058 29.7933 61.0258 29.58C61.3592 29.3667 61.6525 29.1067 61.9058 28.8L61.1059 28.02C60.9058 28.2467 60.6792 28.44 60.4258 28.6C60.1858 28.7467 59.9258 28.86 59.6458 28.94C59.3658 29.0067 59.0658 29.04 58.7458 29.04C58.3325 29.04 57.9392 28.9733 57.5658 28.84C57.2058 28.7067 56.8858 28.5067 56.6059 28.24C56.3258 27.96 56.0992 27.6067 55.9258 27.18C55.7525 26.74 55.6525 26.2267 55.6258 25.64H62.1258C62.1392 25.5333 62.1458 25.4267 62.1458 25.32C62.1592 25.2 62.1658 25.0867 62.1658 24.98C62.1658 24.2333 62.0658 23.5867 61.8658 23.04C61.6792 22.4933 61.4192 22.0467 61.0858 21.7C60.7525 21.34 60.3592 21.0733 59.9058 20.9C59.4525 20.7267 58.9658 20.64 58.4458 20.64C57.8725 20.64 57.3258 20.7467 56.8058 20.96C56.2992 21.1733 55.8525 21.4867 55.4658 21.9C55.0925 22.3 54.7925 22.8 54.5658 23.4C54.3525 24 54.2458 24.6867 54.2458 25.46C54.2458 26.22 54.3525 26.9 54.5658 27.5C54.7792 28.0867 55.0792 28.58 55.4658 28.98C55.8658 29.38 56.3392 29.6867 56.8858 29.9ZM60.7058 24.52H55.6858C55.7525 24.04 55.8658 23.6267 56.0258 23.28C56.1992 22.9333 56.4058 22.6467 56.6458 22.42C56.8858 22.18 57.1458 22.0067 57.4258 21.9C57.7192 21.7933 58.0258 21.74 58.3458 21.74C58.7058 21.74 59.0258 21.8067 59.3058 21.94C59.5992 22.06 59.8458 22.2467 60.0458 22.5C60.2592 22.74 60.4192 23.0333 60.5258 23.38C60.6458 23.7133 60.7058 24.0933 60.7058 24.52ZM66.8259 30.04C67.2925 30.1467 67.7792 30.2 68.2859 30.2C69.1392 30.2 69.8458 30.0733 70.4058 29.82C70.9659 29.5533 71.3792 29.2 71.6459 28.76C71.9258 28.32 72.0658 27.8467 72.0658 27.34C72.0658 26.9 71.9592 26.52 71.7458 26.2C71.5458 25.88 71.2125 25.6 70.7458 25.36C70.2925 25.1067 69.6859 24.86 68.9258 24.62C68.2325 24.42 67.6992 24.2267 67.3259 24.04C66.9525 23.84 66.6925 23.6467 66.5458 23.46C66.4125 23.26 66.3458 23.06 66.3458 22.86C66.3458 22.4733 66.5392 22.1867 66.9258 22C67.3125 21.8133 67.7725 21.72 68.3058 21.72C68.6658 21.72 69.0392 21.7867 69.4258 21.92C69.8125 22.04 70.1592 22.22 70.4659 22.46C70.6125 22.6067 70.7058 22.7333 70.7458 22.84C70.7992 22.9333 70.8325 23.0333 70.8458 23.14L70.9458 23.24L71.0858 23.08L71.9058 22.08C71.6792 21.84 71.4392 21.6333 71.1859 21.46C70.9458 21.2733 70.6792 21.12 70.3858 21C70.0925 20.88 69.7725 20.7933 69.4258 20.74C69.0792 20.6733 68.6925 20.64 68.2658 20.64C67.5325 20.64 66.9125 20.74 66.4058 20.94C65.9125 21.1267 65.5392 21.3933 65.2859 21.74C65.0325 22.0733 64.9058 22.4733 64.9058 22.94C64.9058 23.3933 65.0458 23.8 65.3259 24.16C65.6059 24.5067 66.0059 24.8133 66.5258 25.08C67.0458 25.3467 67.6525 25.58 68.3458 25.78C68.7725 25.9133 69.1325 26.0467 69.4258 26.18C69.7192 26.3133 69.9525 26.4467 70.1258 26.58C70.3125 26.7133 70.4458 26.86 70.5258 27.02C70.6059 27.1667 70.6459 27.34 70.6459 27.54C70.6459 27.8333 70.5525 28.0933 70.3658 28.32C70.1792 28.5333 69.9125 28.7 69.5658 28.82C69.2325 28.94 68.8192 29 68.3259 29C67.7125 29 67.2058 28.9133 66.8058 28.74C66.4192 28.5533 66.0858 28.32 65.8058 28.04C65.6592 27.88 65.5658 27.7467 65.5258 27.64C65.4992 27.52 65.4725 27.4067 65.4458 27.3L65.3259 27.22L65.2058 27.4L64.4058 28.76C64.7525 29.08 65.1258 29.3467 65.5258 29.56C65.9392 29.7733 66.3725 29.9333 66.8259 30.04ZM76.6658 30.06C76.9858 30.1667 77.3259 30.22 77.6859 30.22C77.9925 30.22 78.2792 30.18 78.5458 30.1C78.8259 30.0333 79.0858 29.9333 79.3259 29.8C79.5792 29.6533 79.8058 29.48 80.0059 29.28C80.2058 29.08 80.3792 28.8533 80.5258 28.6V29.06C80.5392 29.22 80.5592 29.38 80.5858 29.54C80.6125 29.6867 80.6592 29.84 80.7258 30H82.1059C82.0125 29.76 81.9525 29.5267 81.9258 29.3C81.9125 29.06 81.9058 28.82 81.9058 28.58V20.86H80.5059V25.9C80.5059 26.4467 80.4392 26.92 80.3058 27.32C80.1725 27.72 79.9858 28.0467 79.7458 28.3C79.5192 28.5533 79.2592 28.7467 78.9659 28.88C78.6725 29 78.3658 29.06 78.0458 29.06C77.7658 29.06 77.4992 29.0067 77.2458 28.9C76.9925 28.7933 76.7658 28.62 76.5658 28.38C76.3792 28.14 76.2325 27.82 76.1258 27.42C76.0192 27.02 75.9659 26.5333 75.9659 25.96V20.86H74.5658L74.5458 25.96C74.5458 26.5467 74.5925 27.0733 74.6858 27.54C74.7925 28.0067 74.9392 28.4067 75.1258 28.74C75.3125 29.0733 75.5325 29.3533 75.7859 29.58C76.0525 29.7933 76.3458 29.9533 76.6658 30.06ZM84.0258 20.86V30H85.3458V23.9C85.3458 23.5533 85.3858 23.2467 85.4659 22.98C85.5458 22.7133 85.6525 22.4933 85.7859 22.32C85.9192 22.1333 86.0592 21.9933 86.2058 21.9C86.3658 21.7933 86.5192 21.74 86.6658 21.74C87.0525 21.74 87.3125 21.8667 87.4458 22.12C87.5925 22.3733 87.6658 22.88 87.6658 23.64V30H89.0059V23.96C89.0059 23.6133 89.0725 23.2667 89.2058 22.92C89.3525 22.5733 89.5325 22.2867 89.7458 22.06C89.9725 21.82 90.2125 21.7 90.4659 21.7C90.6258 21.7 90.7725 21.74 90.9058 21.82C91.0392 21.8867 91.1392 22.0467 91.2058 22.3C91.2859 22.5533 91.3259 22.96 91.3259 23.52V30H92.6459V22.98C92.6592 22.6467 92.6325 22.34 92.5658 22.06C92.4992 21.7667 92.3925 21.52 92.2458 21.32C92.0992 21.1067 91.9125 20.94 91.6859 20.82C91.4592 20.7 91.1925 20.64 90.8858 20.64C90.5925 20.64 90.3058 20.7 90.0258 20.82C89.7592 20.9267 89.5192 21.08 89.3058 21.28C89.1059 21.48 88.9458 21.7133 88.8259 21.98C88.7725 21.7133 88.6658 21.48 88.5059 21.28C88.3592 21.08 88.1725 20.9267 87.9458 20.82C87.7192 20.7 87.4725 20.64 87.2058 20.64C86.9659 20.64 86.7258 20.6867 86.4858 20.78C86.2592 20.8733 86.0458 21.0067 85.8458 21.18C85.6592 21.34 85.4925 21.5333 85.3458 21.76V20.86H84.0258ZM96.8858 29.9C97.4325 30.1 98.0392 30.2 98.7058 30.2C99.1592 30.2 99.5792 30.1467 99.9659 30.04C100.353 29.9467 100.706 29.7933 101.026 29.58C101.359 29.3667 101.653 29.1067 101.906 28.8L101.106 28.02C100.906 28.2467 100.679 28.44 100.426 28.6C100.186 28.7467 99.9258 28.86 99.6459 28.94C99.3658 29.0067 99.0658 29.04 98.7458 29.04C98.3325 29.04 97.9392 28.9733 97.5658 28.84C97.2058 28.7067 96.8858 28.5067 96.6059 28.24C96.3259 27.96 96.0992 27.6067 95.9258 27.18C95.7525 26.74 95.6525 26.2267 95.6258 25.64H102.126C102.139 25.5333 102.146 25.4267 102.146 25.32C102.159 25.2 102.166 25.0867 102.166 24.98C102.166 24.2333 102.066 23.5867 101.866 23.04C101.679 22.4933 101.419 22.0467 101.086 21.7C100.753 21.34 100.359 21.0733 99.9058 20.9C99.4525 20.7267 98.9659 20.64 98.4458 20.64C97.8725 20.64 97.3259 20.7467 96.8058 20.96C96.2992 21.1733 95.8525 21.4867 95.4659 21.9C95.0925 22.3 94.7925 22.8 94.5658 23.4C94.3525 24 94.2458 24.6867 94.2458 25.46C94.2458 26.22 94.3525 26.9 94.5658 27.5C94.7792 28.0867 95.0792 28.58 95.4659 28.98C95.8658 29.38 96.3392 29.6867 96.8858 29.9ZM100.706 24.52H95.6859C95.7525 24.04 95.8658 23.6267 96.0258 23.28C96.1992 22.9333 96.4058 22.6467 96.6459 22.42C96.8858 22.18 97.1459 22.0067 97.4258 21.9C97.7192 21.7933 98.0258 21.74 98.3458 21.74C98.7058 21.74 99.0258 21.8067 99.3058 21.94C99.5992 22.06 99.8458 22.2467 100.046 22.5C100.259 22.74 100.419 23.0333 100.526 23.38C100.646 23.7133 100.706 24.0933 100.706 24.52Z" fill="#F4CBA4"/>
</svg>
