<svg width="256" height="256" viewBox="0 0 256 256" fill="none" xmlns="http://www.w3.org/2000/svg">
<circle cx="128" cy="128" r="128" fill="#1D2021"/>
<path d="M148.677 78.8702C142.113 76.0516 135.233 74.6424 128.036 74.6424C120.84 74.6424 113.936 76.0516 107.323 78.8702C100.759 81.6887 95.0701 85.5034 90.2564 90.3144C85.4914 95.1253 81.6988 100.811 78.8786 107.371C76.0585 113.932 74.6484 120.808 74.6484 128C74.6484 135.192 76.0585 142.093 78.8786 148.702C81.6988 155.311 85.4914 160.996 90.2564 165.759C95.0701 170.521 100.759 174.311 107.323 177.13C113.936 179.948 120.84 181.358 128.036 181.358C135.233 181.358 142.113 179.948 148.677 177.13C155.29 174.311 160.979 170.521 165.744 165.759C170.509 160.996 174.301 155.311 177.121 148.702C179.941 142.093 181.352 135.192 181.352 128C181.352 120.808 179.941 113.932 177.121 107.371C174.301 100.811 170.509 95.1253 165.744 90.3144C160.979 85.5034 155.29 81.6887 148.677 78.8702ZM186.895 103.144C190.298 111.065 192 119.374 192 128.073C192 136.771 190.298 145.057 186.895 152.929C183.54 160.802 179.018 167.581 173.329 173.267C167.64 178.952 160.833 183.496 152.907 186.897C145.03 190.299 136.74 192 128.036 192C119.333 192 111.018 190.299 103.093 186.897C95.216 183.496 88.4087 178.952 82.6712 173.267C76.9823 167.581 72.4361 160.802 69.0325 152.929C65.6775 145.057 64 136.771 64 128.073C64 119.374 65.6775 111.065 69.0325 103.144C72.4361 95.2225 76.9823 88.4191 82.6712 82.7335C88.4087 77.0478 95.216 72.5042 103.093 69.1025C111.018 65.7008 119.333 64 128.036 64C136.74 64 145.03 65.7008 152.907 69.1025C160.833 72.5042 167.64 77.0478 173.329 82.7335C179.018 88.4191 183.54 95.2225 186.895 103.144Z" fill="#EBDBB2"/>
</svg>
