<svg width="256" height="256" viewBox="0 0 256 256" fill="none" xmlns="http://www.w3.org/2000/svg">
<circle cx="128" cy="128" r="128" fill="#1D2021"/>
<path d="M159.015 54.3052C149.169 50.0774 138.849 47.9636 128.055 47.9636C117.26 47.9636 106.904 50.0774 96.9846 54.3052C87.1385 58.533 78.6051 64.2551 71.3846 71.4715C64.237 78.6879 58.5481 87.2164 54.3179 97.0569C50.0877 106.897 47.9726 117.212 47.9726 128C47.9726 138.788 50.0877 149.139 54.3179 159.052C58.5481 168.966 64.237 177.494 71.3846 184.638C78.6051 191.781 87.1385 197.467 96.9846 201.695C106.904 205.923 117.26 208.036 128.055 208.036C138.849 208.036 149.169 205.923 159.015 201.695C168.934 197.467 177.468 191.781 184.615 184.638C191.763 177.494 197.452 168.966 201.682 159.052C205.912 149.139 208.027 138.788 208.027 128C208.027 117.212 205.912 106.897 201.682 97.0569C197.452 87.2164 191.763 78.6879 184.615 71.4715C177.468 64.2551 168.934 58.533 159.015 54.3052ZM216.342 90.7153C221.447 102.597 224 115.062 224 128.109C224 141.157 221.447 153.585 216.342 165.394C211.309 177.203 204.526 187.371 195.993 195.9C187.46 204.428 177.249 211.244 165.361 216.346C153.545 221.449 141.11 224 128.055 224C114.999 224 102.528 221.449 90.6393 216.346C78.8239 211.244 68.6131 204.428 60.0068 195.9C51.4735 187.371 44.6541 177.203 39.5487 165.394C34.5162 153.585 32 141.157 32 128.109C32 115.062 34.5162 102.597 39.5487 90.7153C44.6541 78.8337 51.4735 68.6287 60.0068 60.1002C68.6131 51.5718 78.8239 44.7563 90.6393 39.6538C102.528 34.5513 114.999 32 128.055 32C141.11 32 153.545 34.5513 165.361 39.6538C177.249 44.7563 187.46 51.5718 195.993 60.1002C204.526 68.6287 211.309 78.8337 216.342 90.7153Z" fill="#EBDBB2"/>
</svg>
